<?xml version="1.0" encoding="UTF-8"?>
<level>
  <owner>stolbitsa</owner>
  <repo>subdominant-harmonic-d-1-5-4</repo>
  <version>v1.0.0</version>
  <next number="1" owner="stolbitsa" repo="subdominant"/>
  <readme>
    <ru>254749f853d7c7dc0d874d593af018316fddc0df5e020227c25c3a66986d5179</ru>
    <en>9ffe2e2329d58bdb5c4cae1d5eb234191c1080ace6b07bbb3a651d0ce456c3f8</en>
  </readme>
  <license>b1b99f5538d1fd3702219bff50c665196dfa42f6ee755c37fe41a6178d6bc6e5</license>
  <exercise number="1">
    <scale>major</scale>
    <bpm>80</bpm>
    <lowestNote>1</lowestNote>
    <tonalities>3</tonalities>
    <notes>
      <note number="1" values="1,4,5,18" ticks="0" durationTicks="91" ppq="96" velocity="0.843"/>
      <note number="2" values="1,4,5,18" ticks="0" durationTicks="187" ppq="96" velocity="0.906"/>
      <note number="3" values="1,4,5,18" ticks="191" durationTicks="95" ppq="96" velocity="0.906"/>
      <note number="4" values="1,4,5,18" ticks="191" durationTicks="192" ppq="96" velocity="0.906"/>
    </notes>
  </exercise>
  <exercise number="2">
    <scale>major</scale>
    <bpm>80</bpm>
    <lowestNote>1</lowestNote>
    <tonalities>3</tonalities>
    <notes>
      <note number="1" values="1,4,5,18" ticks="0" durationTicks="91" ppq="96" velocity="0.843"/>
      <note number="2" values="1,4,5,18" ticks="0" durationTicks="187" ppq="96" velocity="0.906"/>
      <note number="3" values="1,4,5,18" ticks="191" durationTicks="95" ppq="96" velocity="0.906"/>
      <note number="4" values="1,4,5,18" ticks="191" durationTicks="192" ppq="96" velocity="0.906"/>
    </notes>
  </exercise>
  <exercise number="3">
    <scale>major</scale>
    <bpm>80</bpm>
    <lowestNote>1</lowestNote>
    <tonalities>3</tonalities>
    <notes>
      <note number="1" values="1,4,5,18" ticks="0" durationTicks="91" ppq="96" velocity="0.843"/>
      <note number="2" values="1,4,5,18" ticks="0" durationTicks="187" ppq="96" velocity="0.906"/>
      <note number="3" values="1,4,5,18" ticks="191" durationTicks="95" ppq="96" velocity="0.906"/>
      <note number="4" values="1,4,5,18" ticks="191" durationTicks="192" ppq="96" velocity="0.906"/>
    </notes>
  </exercise>
  <exercise number="4">
    <scale>major</scale>
    <bpm>80</bpm>
    <lowestNote>1</lowestNote>
    <tonalities>3</tonalities>
    <notes>
      <note number="1" values="1,4,5,18" ticks="0" durationTicks="91" ppq="96" velocity="0.843"/>
      <note number="2" values="1,4,5,18" ticks="0" durationTicks="187" ppq="96" velocity="0.906"/>
      <note number="3" values="1,4,5,18" ticks="191" durationTicks="95" ppq="96" velocity="0.906"/>
      <note number="4" values="1,4,5,18" ticks="191" durationTicks="192" ppq="96" velocity="0.906"/>
    </notes>
  </exercise>
  <exercise number="5">
    <scale>major</scale>
    <bpm>80</bpm>
    <lowestNote>5</lowestNote>
    <tonalities>3</tonalities>
    <notes>
      <note number="1" values="5,18,48,58" ticks="0" durationTicks="187" ppq="96" velocity="0.843"/>
      <note number="2" values="5,18,48,58" ticks="0" durationTicks="91" ppq="96" velocity="0.913"/>
      <note number="3" values="5,18,48,58" ticks="191" durationTicks="95" ppq="96" velocity="0.913"/>
      <note number="4" values="5,18,48,58" ticks="191" durationTicks="192" ppq="96" velocity="0.913"/>
    </notes>
  </exercise>
  <exercise number="6">
    <scale>major</scale>
    <bpm>80</bpm>
    <lowestNote>5</lowestNote>
    <tonalities>3</tonalities>
    <notes>
      <note number="1" values="5,18,48,58" ticks="0" durationTicks="187" ppq="96" velocity="0.843"/>
      <note number="2" values="5,18,48,58" ticks="0" durationTicks="91" ppq="96" velocity="0.913"/>
      <note number="3" values="5,18,48,58" ticks="191" durationTicks="95" ppq="96" velocity="0.913"/>
      <note number="4" values="5,18,48,58" ticks="191" durationTicks="192" ppq="96" velocity="0.913"/>
    </notes>
  </exercise>
  <exercise number="7">
    <scale>major</scale>
    <bpm>80</bpm>
    <lowestNote>4</lowestNote>
    <tonalities>3</tonalities>
    <notes>
      <note number="1" values="4,5,18,48" ticks="0" durationTicks="187" ppq="96" velocity="0.843"/>
      <note number="2" values="4,5,18,48" ticks="0" durationTicks="91" ppq="96" velocity="0.913"/>
      <note number="3" values="4,5,18,48" ticks="191" durationTicks="95" ppq="96" velocity="0.913"/>
      <note number="4" values="4,5,18,48" ticks="191" durationTicks="192" ppq="96" velocity="0.913"/>
    </notes>
  </exercise>
  <exercise number="8">
    <scale>major</scale>
    <bpm>80</bpm>
    <lowestNote>4</lowestNote>
    <tonalities>3</tonalities>
    <notes>
      <note number="1" values="4,5,18,48" ticks="0" durationTicks="187" ppq="96" velocity="0.843"/>
      <note number="2" values="4,5,18,48" ticks="0" durationTicks="91" ppq="96" velocity="0.913"/>
      <note number="3" values="4,5,18,48" ticks="191" durationTicks="95" ppq="96" velocity="0.913"/>
      <note number="4" values="4,5,18,48" ticks="191" durationTicks="192" ppq="96" velocity="0.913"/>
    </notes>
  </exercise>
  <exercise number="9">
    <scale>major</scale>
    <bpm>80</bpm>
    <lowestNote>85</lowestNote>
    <tonalities>3</tonalities>
    <notes>
      <note number="1" values="1,4,5,85" ticks="0" durationTicks="187" ppq="96" velocity="0.843"/>
      <note number="2" values="1,4,5,85" ticks="0" durationTicks="91" ppq="96" velocity="0.913"/>
      <note number="3" values="1,4,5,85" ticks="191" durationTicks="95" ppq="96" velocity="0.913"/>
      <note number="4" values="1,4,5,85" ticks="191" durationTicks="192" ppq="96" velocity="0.913"/>
    </notes>
  </exercise>
  <exercise number="10">
    <scale>major</scale>
    <bpm>80</bpm>
    <lowestNote>85</lowestNote>
    <tonalities>3</tonalities>
    <notes>
      <note number="1" values="1,4,5,85" ticks="0" durationTicks="187" ppq="96" velocity="0.843"/>
      <note number="2" values="1,4,5,85" ticks="0" durationTicks="91" ppq="96" velocity="0.913"/>
      <note number="3" values="1,4,5,85" ticks="191" durationTicks="95" ppq="96" velocity="0.913"/>
      <note number="4" values="1,4,5,85" ticks="191" durationTicks="192" ppq="96" velocity="0.913"/>
    </notes>
  </exercise>
  <exercise number="11">
    <scale>major</scale>
    <bpm>80</bpm>
    <lowestNote>84</lowestNote>
    <tonalities>3</tonalities>
    <notes>
      <note number="1" values="1,4,84,85" ticks="0" durationTicks="187" ppq="96" velocity="0.843"/>
      <note number="2" values="1,4,84,85" ticks="0" durationTicks="91" ppq="96" velocity="0.913"/>
      <note number="3" values="1,4,84,85" ticks="191" durationTicks="95" ppq="96" velocity="0.913"/>
      <note number="4" values="1,4,84,85" ticks="191" durationTicks="192" ppq="96" velocity="0.913"/>
    </notes>
  </exercise>
  <exercise number="12">
    <scale>major</scale>
    <bpm>80</bpm>
    <lowestNote>84</lowestNote>
    <tonalities>3</tonalities>
    <notes>
      <note number="1" values="1,4,84,85" ticks="0" durationTicks="187" ppq="96" velocity="0.843"/>
      <note number="2" values="1,4,84,85" ticks="0" durationTicks="91" ppq="96" velocity="0.913"/>
      <note number="3" values="1,4,84,85" ticks="191" durationTicks="95" ppq="96" velocity="0.913"/>
      <note number="4" values="1,4,84,85" ticks="191" durationTicks="192" ppq="96" velocity="0.913"/>
    </notes>
  </exercise>
</level>
